<?xml version="1.0" ?><svg height="20px" version="1.1" viewBox="0 0 22 20" width="22px" xmlns="http://www.w3.org/2000/svg" xmlns:xlink="http://www.w3.org/1999/xlink"><title/><desc/><g fill="none" fill-rule="evenodd" id="Page-1" stroke="none" stroke-width="1"><g id="Iconspace_UI-element" transform="translate(-601.000000, -74.000000)"><g id="iconspace_Alarm" transform="translate(600.000000, 72.000000)"><polygon id="Shape" points="0 0 24 0 24 24 0 24"/><path d="M5.58578644,2 L7,3.41584965 L2.41421356,8 L1,6.58415035 L5.58578644,2 Z M18.4142136,2 L23,6.58415035 L21.5857864,8 L17,3.41584965 L18.4142136,2 Z M12,22 C7.02943725,22 3,17.9705627 3,13 C3,8.02943725 7.02943725,4 12,4 C16.9705627,4 21,8.02943725 21,13 C21,17.9705627 16.9705627,22 12,22 Z M12,20 C15.8659932,20 19,16.8659932 19,13 C19,9.13400675 15.8659932,6 12,6 C8.13400675,6 5,9.13400675 5,13 C5,16.8659932 8.13400675,20 12,20 Z" fill="#00CDCE" fill-rule="nonzero" id="Shape"/><polygon className="clock-hands" fill="#efefef" fill-rule="nonzero" id="Shape" points="16.0028025 14.3358994 14.8934021 16 11 13.5351838 11 9 13 9 13 12.4648162"/></g></g></g></svg>