<?xml version="1.0" ?><!DOCTYPE svg  PUBLIC '-//W3C//DTD SVG 1.1//EN'  'http://www.w3.org/Graphics/SVG/1.1/DTD/svg11.dtd'><svg enable-background="new 0 0 100 100" height="100px" id="Icon" version="1.1" viewBox="0 0 100 100" width="100px" xml:space="preserve" xmlns="http://www.w3.org/2000/svg" xmlns:xlink="http://www.w3.org/1999/xlink"><g><path d="M23,47.13c0,4.078,3.274,7.385,7.311,7.385h62.378c4.037,0,7.311-3.307,7.311-7.385V6.899   c0-4.078-3.273-7.385-7.311-7.385H30.311C26.274-0.485,23,2.821,23,6.899V47.13z" fill="#FC913F"/><path d="M77.629,18.515H23V47.13c0,4.078,3.274,7.385,7.311,7.385H86.8V27.779   C86.8,22.663,82.693,18.515,77.629,18.515z" fill="#FC7D3F"/><path d="M0,74.13c0,4.078,3.274,7.385,7.311,7.385h62.378c4.037,0,7.311-3.307,7.311-7.385v-40.23   c0-4.078-3.273-7.385-7.311-7.385H7.311C3.274,26.515,0,29.821,0,33.899V74.13z" fill="#77C3F5"/><path d="M46.118,74.515L21.492,99.141c-1.793,1.793-4.7,1.793-6.492,0l0.103-24.626H46.118z" fill="#77C3F5"/><g><rect fill="#FFFFFF" height="4" width="48.942" x="14.058" y="44.515"/><rect fill="#FFFFFF" height="4" width="48.942" x="14.058" y="52.515"/><polygon fill="#FFFFFF" points="18.555,60.515 14.058,60.515 14.058,64.515 18.555,64.515 31.561,64.515 36.058,64.515     36.058,60.515 31.561,60.515   "/></g><polygon fill="#4CABEB" points="45,56.515 45,56.515 45,56.515 45,56.515 45,56.515 45,56.515 45,56.515 45,56.515  "/></g></svg>