<?xml version="1.0" ?><!DOCTYPE svg  PUBLIC '-//W3C//DTD SVG 1.1//EN'  'http://www.w3.org/Graphics/SVG/1.1/DTD/svg11.dtd'><svg enable-background="new 0 0 100 100" height="100px" id="Icon" version="1.1" viewBox="0 0 100 100" width="100px" xml:space="preserve" xmlns="http://www.w3.org/2000/svg" xmlns:xlink="http://www.w3.org/1999/xlink"><g><path d="M29.265,54.031H26v-4.588c2.06-1.416,4.265-3.558,4.601-6.013h0.084c0.616,0,1.116-0.5,1.116-1.116   l0.558-4.463c0-0.412-0.226-0.768-0.558-0.962v-0.712v-3.905c0-5.854-4.627-10.601-10.336-10.601c-2.909,0-5.533,1.238-7.412,3.222   c-1.389,0.55-2.536,1.592-3.244,2.915H10.6v0.431c-0.355,0.806-0.558,1.696-0.558,2.639v5.3v0.712   c-0.332,0.194-0.558,0.55-0.558,0.962l0.558,4.463c0,0.616,0.5,1.116,1.116,1.116h0.084c0.366,2.672,2.397,4.976,4.757,6.374v4.227   h-2.356C2.485,54.031,0,70.694,0,70.694C0,71.968,1.056,73,2.358,73h15.749h1.674h20.77c1.302,0,2.358-1.032,2.358-2.306   C42.908,70.694,40.423,54.031,29.265,54.031z" fill="#FC913F"/><path d="M86.356,54.031H83v-4.588c2.06-1.416,4.357-3.558,4.693-6.013h0.084c0.616,0,1.115-0.5,1.115-1.116   l0.559-4.463c0-0.412-0.227-0.768-0.559-0.962v-0.712v-3.905c0-5.854-4.627-10.601-10.336-10.601c-2.908,0-5.533,1.238-7.411,3.222   c-1.389,0.55-2.536,1.592-3.243,2.915h-0.211v0.431c-0.355,0.806-0.557,1.696-0.557,2.639v5.3v0.712   c-0.332,0.194-0.559,0.55-0.559,0.962l0.559,4.463c0,0.616,0.499,1.116,1.115,1.116h0.084c0.366,2.672,2.397,4.976,4.758,6.374   v4.227h-2.356c-11.158,0-13.644,16.663-13.644,16.663c0,1.273,1.056,2.306,2.357,2.306h15.749h1.674h20.771   c1.302,0,2.357-1.032,2.357-2.306C100,70.694,97.515,54.031,86.356,54.031z" fill="#FC913F"/><g><path d="M65.5,56.521v-0.099c0.616-0.56,1.189-1.156,1.732-1.774c-8.188,2.997-10.141,16.047-10.141,16.047    c0,1.273,1.056,2.306,2.357,2.306h15.749h1.674h11.484C84.079,64.868,76.992,56.973,65.5,56.521z" fill="#FC7D3F"/><path d="M67.135,36.178v0.712c-0.332,0.194-0.559,0.55-0.559,0.962l0.559,4.463c0,0.616,0.499,1.116,1.115,1.116    h0.084c0.257,1.873,1.34,3.558,2.773,4.884c0.179-0.458,0.342-0.921,0.486-1.39c1.656-1.288,2.762-3.253,2.893-5.477l0.971-7.766    L75.5,33c0-1.325-0.356-2.606-1-3.726V23c0-0.157-0.009-0.313-0.012-0.47c-1.264,0.558-2.398,1.365-3.343,2.363    c-1.389,0.55-2.536,1.592-3.243,2.915h-0.211v0.431c-0.355,0.806-0.557,1.696-0.557,2.639V36.178z" fill="#FC7D3F"/></g><g><path d="M18.106,73h1.674h20.77c1.302,0,2.358-1.032,2.358-2.306c0,0-2.164-14.482-11.502-16.439    c0.708,0.845,1.479,1.646,2.322,2.388C23.218,57.758,16.614,65.272,12.549,73H18.106z" fill="#FC7D3F"/><path d="M27.397,46.918c0.114,0.375,0.247,0.743,0.382,1.11c1.4-1.279,2.583-2.856,2.822-4.598h0.084    c0.616,0,1.116-0.5,1.116-1.116l0.558-4.463c0-0.412-0.226-0.768-0.558-0.962v-0.712v-3.905c0-4.771-3.074-8.804-7.301-10.134    v7.136c-0.644,1.119-1,2.4-1,3.726l1.013,8.448C24.645,43.668,25.746,45.63,27.397,46.918z" fill="#FC7D3F"/></g><path d="M64.454,62H60v-8.222c3.693-2.54,6.247-6.377,6.849-10.778H67c1.104,0,2-0.896,2-2l1-8   c0-0.738-0.404-1.376-1-1.723V30v-7c0-10.492-8.294-19-18.525-19c-5.215,0-9.918,2.219-13.285,5.775   c-2.489,0.983-4.545,2.852-5.813,5.225H31v0.772c-0.638,1.442-1,3.04-1,4.728V30v1.277c-0.595,0.347-1,0.984-1,1.723l1,8   c0,1.104,0.896,2,2,2h0.151c0.655,4.79,3.618,8.917,7.849,11.425V62h-3.546C16.454,62,12,91.867,12,91.867   C12,94.15,13.893,96,16.227,96h28.228h3h37.228c2.334,0,4.227-1.85,4.227-4.133C88.908,91.867,84.454,62,64.454,62z" fill="#4CABEB"/></g></svg>