<svg width="90" height="36" viewBox="0 0 90 36" fill="none" xmlns="http://www.w3.org/2000/svg">
<path d="M13.2812 20.2266C13.4115 20.2266 13.5286 20.194 13.6328 20.1289V18.3516C14.5182 17.7526 15.7552 17.2643 17.3438 16.8867C18.9453 16.5091 20.5013 16.3203 22.0117 16.3203C22.7018 17.0234 23.2747 18.0781 23.7305 19.4844C24.1992 20.8776 24.4466 22.1406 24.4727 23.2734C24.2122 23.7943 23.7695 24.3542 23.1445 24.9531C22.5326 25.5521 21.7904 26.1055 20.918 26.6133C18.7565 27.8893 16.276 28.5273 13.4766 28.5273C9.46615 28.5273 6.30859 27.362 4.00391 25.0312C1.62109 22.6745 0.429688 19.4128 0.429688 15.2461C0.429688 11.0664 1.73177 7.78516 4.33594 5.40234C5.48177 4.33464 6.81641 3.53385 8.33984 3C9.86328 2.45312 11.4648 2.17969 13.1445 2.17969C16.4258 2.17969 19.1146 2.97396 21.2109 4.5625C23.3073 6.15104 24.3555 8.11068 24.3555 10.4414C24.3555 12.1992 23.8151 13.5013 22.7344 14.3477C21.6536 15.181 20.1888 15.5977 18.3398 15.5977C17.3242 15.5977 16.3021 15.3503 15.2734 14.8555C14.2448 14.3477 13.6328 13.8724 13.4375 13.4297C13.4375 12.362 13.457 11.5221 13.4961 10.9102C13.4701 10.8971 13.4245 10.8906 13.3594 10.8906H13.2227C13.0273 10.8906 12.8711 10.9492 12.7539 11.0664C12.6497 11.1706 12.5521 11.3984 12.4609 11.75C12.3828 12.1016 12.3438 13.0586 12.3438 14.6211C12.3438 18.3581 12.6562 20.2266 13.2812 20.2266ZM46.0742 18.332C46.0742 19.2695 46.1784 20.0247 46.3867 20.5977C46.5951 21.1706 46.9596 21.6198 47.4805 21.9453C47.4935 22.0104 47.5 22.1341 47.5 22.3164V22.668C47.5 24.4648 46.9792 25.8646 45.9375 26.8672C44.9089 27.8568 43.5742 28.3516 41.9336 28.3516C40.306 28.3516 38.9844 27.8893 37.9688 26.9648C36.7839 25.9102 36.1914 24.3086 36.1914 22.1602C36.1914 21.2487 36.2305 20.4479 36.3086 19.7578C36.3997 19.0547 36.4583 18.5534 36.4844 18.2539C36.5234 17.9544 36.5625 17.6745 36.6016 17.4141C36.6406 17.1536 36.6602 16.7695 36.6602 16.2617C36.6602 15.7539 36.5885 15.3893 36.4453 15.168C36.3151 14.9466 36.1263 14.8359 35.8789 14.8359C35.6445 14.8359 35.4362 14.888 35.2539 14.9922L35.5078 18.1758C35.2734 19.4909 35.1562 20.8841 35.1562 22.3555C35.1562 23.8268 35.4883 25.168 36.1523 26.3789C34.8763 27.694 33.0859 28.3516 30.7812 28.3516C29.4661 28.3516 28.3268 28.0065 27.3633 27.3164C26.2435 26.5352 25.6836 25.5 25.6836 24.2109V1.41797C26.3086 1.05339 27.0573 0.753906 27.9297 0.519531C28.8151 0.285156 29.707 0.167969 30.6055 0.167969C32.1029 0.167969 33.3398 0.460938 34.3164 1.04688C35.4232 1.73698 35.9766 2.72656 35.9766 4.01562V5.87109C34.8438 5.9362 33.7565 6.26172 32.7148 6.84766C31.8164 7.36849 31.3672 7.84375 31.3672 8.27344C31.3672 8.41667 31.4193 8.54688 31.5234 8.66406C31.6276 8.76823 31.7513 8.83333 31.8945 8.85938C32.4414 8.22135 33.2096 7.6875 34.1992 7.25781C35.2018 6.82812 36.3867 6.61328 37.7539 6.61328C39.1211 6.61328 40.3516 6.82161 41.4453 7.23828C42.8255 7.75911 43.9128 8.55339 44.707 9.62109C45.6576 10.9232 46.1328 12.5573 46.1328 14.5234L46.0742 18.332ZM52.5 28.0195C51.0547 28.0195 49.9349 27.6354 49.1406 26.8672C48.3594 26.099 47.9688 24.9401 47.9688 23.3906V4.28906C48.6589 3.70312 49.4987 3.25391 50.4883 2.94141C51.4909 2.61589 52.526 2.45312 53.5938 2.45312C55.1693 2.45312 56.5039 2.84375 57.5977 3.625C58.7826 4.51042 59.375 5.73438 59.375 7.29688V17.9805C58.6458 18.0456 57.9297 18.2539 57.2266 18.6055C56.5234 18.944 56.1719 19.2956 56.1719 19.6602C56.1719 19.8815 56.2956 20.0703 56.543 20.2266C57.832 19.1458 59.7461 18.6055 62.2852 18.6055H66.9141C67.7734 20.1159 68.2031 21.6589 68.2031 23.2344C68.2031 24.0156 68.0664 24.8815 67.793 25.832C67.5195 26.7826 67.1549 27.5117 66.6992 28.0195H52.5ZM77.3828 18.1367V18.5859C77.3828 18.7943 77.3893 18.944 77.4023 19.0352C77.5326 19.1003 77.6758 19.1328 77.832 19.1328C78.2096 19.1328 78.3984 18.8464 78.3984 18.2734C78.3984 16.3594 78.5026 14.3737 78.7109 12.3164C78.9323 10.2461 79.1667 8.65104 79.4141 7.53125C80.4688 6.76302 81.875 6.37891 83.6328 6.37891C85.3906 6.37891 86.7448 6.72396 87.6953 7.41406C88.6589 8.09115 89.1406 8.91146 89.1406 9.875C89.1406 10.2786 88.8997 11.9453 88.418 14.875C87.8841 17.8568 87.2005 20.9948 86.3672 24.2891C86.1979 24.9531 85.8919 25.8841 85.4492 27.082C85.0195 28.2799 84.5573 29.276 84.0625 30.0703C82.513 32.5312 80.599 34.0547 78.3203 34.6406C77.2526 34.9141 76.1784 35.0508 75.0977 35.0508C73.0013 35.0508 71.3802 34.5299 70.2344 33.4883C69.1797 32.5508 68.6523 31.3854 68.6523 29.9922C68.6523 28.612 69.0625 27.3099 69.8828 26.0859C70.0781 26.0339 70.4362 26.0078 70.957 26.0078C71.4779 26.0078 72.1289 26.0729 72.9102 26.2031C75.0716 26.6068 76.1719 26.8086 76.2109 26.8086C76.3021 26.8216 76.3997 26.8411 76.5039 26.8672C76.6211 26.8802 76.7708 26.8867 76.9531 26.8867C77.1354 26.8867 77.2917 26.8346 77.4219 26.7305C77.5521 26.6263 77.6172 26.418 77.6172 26.1055L73.0078 25.2266C71.875 24.7578 70.8919 23.7747 70.0586 22.2773C69.0299 20.4284 68.3333 17.9219 67.9688 14.7578C67.1094 13.638 66.6797 12.2969 66.6797 10.7344C66.6797 9.17188 67.0703 7.8112 67.8516 6.65234H72.8711C74.5508 6.65234 75.8073 7.13411 76.6406 8.09766C77.2526 8.8138 77.6432 9.86198 77.8125 11.2422C77.526 13.5078 77.3828 15.806 77.3828 18.1367Z" fill="white"/>
</svg>
